<?xml version="1.0" encoding="UTF-8"?>
<svg version="1.1" xmlns="http://www.w3.org/2000/svg" width="512" height="512">
<path d="M0 0 C15.5203665 14.41359886 25.87258788 32.539449 31.8125 52.75 C32.1528125 53.86761719 32.493125 54.98523438 32.84375 56.13671875 C37.48418021 74.63398915 36.77908886 96.63077267 30.8125 114.75 C30.49901611 115.70205322 30.49901611 115.70205322 30.17919922 116.67333984 C24.17470803 134.18306582 13.9731061 150.02978321 4.54492188 165.83349609 C1.62615279 170.74719614 -1.24936095 175.68597439 -4.125 180.625 C-4.70596436 181.62217041 -5.28692871 182.61934082 -5.88549805 183.64672852 C-7.06432408 185.67029571 -8.24295334 187.69397755 -9.42138672 189.71777344 C-12.34078022 194.7300581 -15.26431168 199.73992787 -18.1875 204.75 C-21.65340232 210.69078976 -25.11888086 216.63182426 -28.58203125 222.57421875 C-35.29494873 234.09087534 -42.02545441 245.59704801 -48.76986694 257.09527588 C-54.87485093 267.50385813 -60.96264876 277.92236297 -67.0390625 288.34765625 C-67.54727539 289.21535645 -68.05548828 290.08305664 -68.57910156 290.97705078 C-69.75741688 293.00851789 -70.91841436 295.05005656 -72.06933594 297.09716797 C-72.69356445 298.19818848 -73.31779297 299.29920898 -73.9609375 300.43359375 C-74.52989746 301.4486499 -75.09885742 302.46370605 -75.68505859 303.50952148 C-76.18086426 304.24887939 -76.67666992 304.9882373 -77.1875 305.75 C-77.8475 305.75 -78.5075 305.75 -79.1875 305.75 C-79.60410889 305.01700684 -80.02071777 304.28401367 -80.44995117 303.52880859 C-88.45533707 289.45434568 -96.51431025 275.41909491 -104.78125 261.49609375 C-108.75436815 254.80384338 -112.69075397 248.09014144 -116.625 241.375 C-116.98679352 240.75749878 -117.34858704 240.13999756 -117.72134399 239.50378418 C-120.2113589 235.25328103 -122.69978689 231.00185067 -125.1875 226.75 C-125.80802246 225.68958496 -126.42854492 224.62916992 -127.06787109 223.53662109 C-134.23639495 211.28101038 -141.3525183 198.9965914 -148.4309082 186.6887207 C-152.71816495 179.25166532 -157.07512587 171.85919717 -161.46765137 164.48413086 C-181.76404065 130.39042077 -199.0678769 96.44584709 -189.1875 55.5 C-181.27107812 25.51927566 -162.12340347 0.26524123 -135.4765625 -15.48828125 C-91.55310005 -40.43168659 -37.13596502 -33.0913348 0 0 Z M-152 25.125 C-167.80918268 45.42213747 -174.90870183 70.60827344 -171.89892578 96.20410156 C-168.04643028 121.92532656 -154.54132266 143.57806906 -134.1875 159.75 C-113.50980593 174.27234957 -89.15775385 180.76904038 -64.0390625 177.25390625 C-38.8662195 172.58347312 -15.93027874 159.37714105 -1.11621094 138.18945312 C13.10529009 117.03297295 19.20838656 91.86895663 14.6875 66.625 C9.35849759 40.24758023 -5.79287911 18.90579179 -27.98046875 3.85546875 C-69.63699347 -21.94796559 -120.80333444 -11.13779074 -152 25.125 Z " fill="#EF524F" transform="translate(334.1875,80.25)"/>
<path d="M0 0 C9.9 0 19.8 0 30 0 C32.10375 3.691875 34.2075 7.38375 36.375 11.1875 C37.0354834 12.3427417 37.6959668 13.4979834 38.37646484 14.68823242 C38.89934082 15.60967041 39.4222168 16.5311084 39.9609375 17.48046875 C40.49509277 18.41785889 41.02924805 19.35524902 41.57958984 20.32104492 C42.91255591 22.83507666 43.99961005 25.33862506 45 28 C43.87722656 28.30292969 42.75445312 28.60585938 41.59765625 28.91796875 C25.60773021 33.01063189 25.60773021 33.01063189 14 44 C13.35279933 48.0270264 13.71442507 50.30034142 15.25 54.0625 C22.67830102 63.7012989 39.03541879 65.91184252 50.40234375 67.46484375 C53.27250099 67.73449816 56.11927055 67.90299154 59 68 C59.76699219 68.03996094 60.53398437 68.07992187 61.32421875 68.12109375 C77.1072866 68.57663221 98.56226175 66.79759694 111 56 C113.8079897 52.93673851 114.24003782 50.60235757 114.125 46.5625 C113.41114506 42.12482443 111.85926123 39.9841632 108.27734375 37.33984375 C100.42766576 32.72159409 91.8020088 30.13119504 83 28 C84.39417368 24.29102741 86.07818479 20.92161688 88.0390625 17.48046875 C88.56193848 16.55903076 89.08481445 15.63759277 89.62353516 14.68823242 C90.28401855 13.53299072 90.94450195 12.37774902 91.625 11.1875 C93.72875 7.495625 95.8325 3.80375 98 0 C107.9 0 117.8 0 128 0 C148.16326531 41.48979592 148.16326531 41.48979592 151 50 C153.73562834 50.91187611 155.46145475 51.14730259 158.2878418 51.20532227 C159.14850754 51.22526749 160.00917328 51.24521271 160.8959198 51.26576233 C161.82100845 51.28247482 162.74609711 51.29918732 163.69921875 51.31640625 C165.12449638 51.3475779 165.12449638 51.3475779 166.5785675 51.37937927 C169.61480456 51.44478052 172.65112831 51.50371604 175.6875 51.5625 C177.74545169 51.60569417 179.80339459 51.64930876 181.86132812 51.69335938 C186.90746316 51.80045231 191.95368543 51.90174646 197 52 C202.55965607 62.45719731 208.06567285 72.91461154 213.125 83.625 C213.60453125 84.62789063 214.0840625 85.63078125 214.578125 86.6640625 C218 93.85977679 218 93.85977679 218 95 C116.36 95 14.72 95 -90 95 C-87.74964232 88.24892696 -87.74964232 88.24892696 -86.22827148 85.0300293 C-85.89129745 84.3129631 -85.55432343 83.59589691 -85.20713806 82.85710144 C-84.66954613 81.72707451 -84.66954613 81.72707451 -84.12109375 80.57421875 C-83.74896255 79.78602249 -83.37683136 78.99782623 -82.99342346 78.18574524 C-82.21087111 76.53020273 -81.42665669 74.87544495 -80.64086914 73.22143555 C-79.43404299 70.68022057 -78.233246 68.13622104 -77.03320312 65.59179688 C-76.27118657 63.98160362 -75.50882888 62.37157175 -74.74609375 60.76171875 C-74.3856749 59.99824631 -74.02525604 59.23477386 -73.65391541 58.44816589 C-71.11561949 53.11561949 -71.11561949 53.11561949 -70 52 C-68.6399067 51.89874813 -67.27473159 51.86433833 -65.91088867 51.8581543 C-64.60899849 51.84760262 -64.60899849 51.84760262 -63.2808075 51.83683777 C-61.86370232 51.83059135 -61.86370232 51.83059135 -60.41796875 51.82421875 C-58.4342342 51.80101845 -56.45051021 51.77690103 -54.46679688 51.75195312 C-51.32634453 51.71682722 -48.1862792 51.68749478 -45.0456543 51.67407227 C-42.02344379 51.65861278 -39.00237771 51.61841069 -35.98046875 51.57421875 C-34.57247261 51.57708138 -34.57247261 51.57708138 -33.1360321 51.58000183 C-28.04924295 51.52622223 -28.04924295 51.52622223 -23.57446289 49.36132812 C-21.69496742 46.54252207 -20.23588558 43.72913125 -18.828125 40.64453125 C-18.54427948 40.02943192 -18.26043396 39.41433258 -17.96798706 38.78059387 C-17.05378093 36.79487919 -16.15187956 34.80383906 -15.25 32.8125 C-14.62574313 31.45124436 -14.00057765 30.09040504 -13.37451172 28.72998047 C-12.1420886 26.05003526 -10.91364153 23.36832924 -9.68847656 20.68505859 C-7.53753542 15.98095183 -5.33688129 11.30070621 -3.125 6.625 C-2.09375 4.43875 -1.0625 2.2525 0 0 Z " fill="#EF524F" transform="translate(192,344)"/>
<path d="M0 0 C3.48531456 2.85936008 6.7846689 5.84088098 10 9 C10.61359375 9.60070312 11.2271875 10.20140625 11.859375 10.8203125 C26.25125191 26.0704206 33.43914822 47.00355397 33.3125 67.75 C33.30512817 69.19234009 33.30512817 69.19234009 33.29760742 70.66381836 C32.93009962 93.13079503 23.82860826 113.11818633 8 129 C7.26394531 129.75925781 6.52789062 130.51851562 5.76953125 131.30078125 C-11.80978397 148.35006687 -34.05474107 153.55908273 -57.8515625 153.28125 C-79.0787585 152.63030869 -98.06740234 142.69018536 -113 128 C-113.7734375 127.23945313 -114.546875 126.47890625 -115.34375 125.6953125 C-132.0931525 108.20021742 -137.69299498 86.02849687 -137.24609375 62.3828125 C-136.43486265 39.20824047 -125.16635078 20.1956201 -109.109375 4.10546875 C-79.45312843 -23.49477753 -31.6541567 -24.31857263 0 0 Z M-67 3 C-68.25564649 5.21589006 -68.25564649 5.21589006 -69 8 C-68.19190945 10.66019126 -68.19190945 10.66019126 -66.6875 13.25 C-63.45506449 19.85656682 -62.02368329 25.27002578 -63.9375 32.5 C-65.6918417 37.17552462 -68.71596382 40.34209445 -72.125 43.9140625 C-74.4259725 46.4738944 -75.70216642 48.83653066 -77 52 C-80 49 -83 46 -86 43 C-93.68148331 46.3888897 -96.88545304 54.30661791 -99.8125 61.6875 C-104.95591174 75.32003791 -104.17568686 89.68436236 -98.74609375 103.09765625 C-92.518249 116.52061319 -82.88893432 125.58619999 -69.0625 130.875 C-55.83787021 135.17407233 -42.38587208 134.74077916 -29.625 128.8125 C-15.45431497 120.79988111 -6.66448084 109.59498102 -2 94 C0.43163998 82.24707344 0.37994086 68.48571113 -6.23828125 58.046875 C-7.56419844 56.42595866 -7.56419844 56.42595866 -10 55 C-13.87337793 54.87505232 -16.8996322 57.91199719 -20 60 C-20.1959375 58.88625 -20.391875 57.7725 -20.59375 56.625 C-23.63242718 40.63975919 -29.04022445 27.41216678 -41 16 C-41.53882813 15.44183594 -42.07765625 14.88367188 -42.6328125 14.30859375 C-46.31482872 10.76534698 -50.60616577 8.44835462 -55.125 6.125 C-55.7233667 5.81409424 -56.3217334 5.50318848 -56.93823242 5.18286133 C-60.43374715 3.4669167 -63.10421759 2.63247336 -67 3 Z " fill="#EF524F" transform="translate(308,96)"/>
<path d="M0 0 C0.73992691 -0.01942154 1.47985382 -0.03884308 2.24220276 -0.05885315 C9.08284005 -0.22776323 15.92506109 -0.32435789 22.76730537 -0.39992237 C27.36574181 -0.45131314 31.96117594 -0.52575006 36.55810547 -0.65625 C41.00107814 -0.78189463 45.44134259 -0.84829238 49.88598251 -0.87351036 C51.57755183 -0.89311524 53.26901627 -0.93351736 54.95956802 -0.99537086 C60.184481 -1.17760703 64.89151746 -1.19790662 69.92919922 0.30395508 C73.09136996 3.56417734 76.92919922 8.46696901 76.92919922 13.30395508 C76.0235321 13.30760071 75.11786499 13.31124634 74.18475342 13.31500244 C65.65041587 13.35286623 57.11646109 13.40970046 48.58239365 13.48785782 C44.19488782 13.52737029 39.80758381 13.55954011 35.41992188 13.57495117 C31.18567898 13.59009318 26.95199081 13.62449427 22.71799469 13.6722641 C21.10251944 13.6871034 19.486965 13.69499756 17.87142181 13.69583893 C15.60850357 13.69820282 13.34712561 13.72523213 11.08447266 13.75805664 C9.15254059 13.77138031 9.15254059 13.77138031 7.18157959 13.78497314 C3.36316861 14.39427651 2.25152008 15.28010313 -0.07080078 18.30395508 C-1.31736583 20.57759328 -2.43562777 22.79481132 -3.50439453 25.14770508 C-3.81828125 25.82006195 -4.13216797 26.49241882 -4.45556641 27.18515015 C-5.48141085 29.38768555 -6.49482016 31.5957069 -7.50830078 33.80395508 C-8.22697435 35.35267052 -8.94646695 36.90100615 -9.66674805 38.44897461 C-11.47668452 42.34355177 -13.27699618 46.24248674 -15.07421875 50.14294434 C-17.03352918 54.39155685 -19.0056145 58.63423461 -20.97607422 62.87768555 C-21.99905051 65.08174632 -23.020531 67.28650194 -24.04052734 69.49194336 C-27.18838627 76.28956441 -30.37373185 83.06803153 -33.58642578 89.83520508 C-33.97367325 90.65167511 -34.36092072 91.46814514 -34.75990295 92.30935669 C-36.67288143 96.34204945 -38.58941927 100.3729816 -40.51196289 104.40112305 C-41.21270386 105.87648033 -41.91331241 107.35190051 -42.61376953 108.82739258 C-42.93400085 109.49492554 -43.25423218 110.1624585 -43.58416748 110.85021973 C-45.35782297 114.59650344 -47.09309558 118.26779673 -48.07080078 122.30395508 C-47.41080078 123.29395508 -46.75080078 124.28395508 -46.07080078 125.30395508 C-43.63454087 125.75680117 -43.63454087 125.75680117 -40.73623562 125.67589188 C-39.02780708 125.68577664 -39.02780708 125.68577664 -37.28486484 125.6958611 C-36.0229235 125.6878047 -34.76098216 125.67974829 -33.46080017 125.67144775 C-32.1150993 125.67347044 -30.76939987 125.67680785 -29.42370516 125.68135333 C-25.71315134 125.69003594 -22.00284615 125.67990418 -18.29231393 125.66681099 C-14.29569541 125.65594774 -10.29910077 125.66232036 -6.30247498 125.66659546 C1.5316202 125.67223975 9.36561783 125.66189358 17.19969637 125.6463075 C26.31353705 125.62880621 35.42735857 125.62734905 44.54121345 125.62669191 C60.79662113 125.62500238 77.05198423 125.60916915 93.30737305 125.58520508 C109.09871796 125.56194184 124.89003458 125.54778002 140.68139648 125.54418945 C141.65406619 125.54396669 142.6267359 125.54374392 143.62888045 125.5435144 C145.58819782 125.54307182 147.54751519 125.54262979 149.50683257 125.54218833 C150.47323559 125.54196877 151.43963861 125.5417492 152.43532658 125.54152298 C153.39921228 125.54130699 154.36309799 125.54109101 155.35619235 125.54086848 C170.38055027 125.53717147 185.4049036 125.52581181 200.42925649 125.51339258 C205.88416877 125.50895076 211.33908063 125.50551521 216.79399402 125.50277045 C225.44469727 125.49834586 234.09538361 125.49060042 242.74607617 125.47599605 C246.70156248 125.46937045 250.65703378 125.46432015 254.61252594 125.46353531 C258.22762459 125.46275241 261.84268522 125.45738559 265.45777207 125.44821581 C267.3975134 125.44449044 269.33726223 125.44569315 271.27700669 125.44702268 C272.41335129 125.44318153 273.5496959 125.43934039 274.7204752 125.43538284 C275.70932195 125.43413635 276.69816871 125.43288985 277.71698052 125.43160558 C279.90336392 125.5515232 279.90336392 125.5515232 280.92919922 124.30395508 C280.566181 118.30490864 278.52595168 113.77758755 275.84326172 108.46020508 C275.22420959 107.2035202 275.22420959 107.2035202 274.59265137 105.92144775 C273.25531769 103.2111524 271.904751 100.5076842 270.55419922 97.80395508 C269.62716209 95.92982091 268.70122216 94.05514363 267.77636719 92.17993164 C265.96615001 88.51058222 264.15222937 84.84310587 262.33544922 81.17700195 C259.52343239 75.49352109 256.77286993 69.78271583 254.05419922 64.05395508 C253.23288233 62.32855292 252.41126593 60.60329331 251.58935547 58.87817383 C251.17443848 58.00725098 250.75952148 57.13632812 250.33203125 56.23901367 C247.71234457 50.75800544 245.07270372 45.28660936 242.43231201 39.81555176 C241.81542297 38.53726128 241.19875668 37.25886328 240.58233643 35.98034668 C236.61700653 27.74796292 236.61700653 27.74796292 232.51904297 19.58129883 C230.92919922 16.30395508 230.92919922 16.30395508 230.92919922 14.30395508 C206.50919922 13.97395508 182.08919922 13.64395508 156.92919922 13.30395508 C158.90919922 9.67395508 160.88919922 6.04395508 162.92919922 2.30395508 C163.25919922 1.64395508 163.58919922 0.98395508 163.92919922 0.30395508 C173.63877341 0.18812477 183.34818337 0.0992722 193.05830765 0.04489422 C197.56711472 0.01879579 202.07544927 -0.01660615 206.58398438 -0.07324219 C210.93471675 -0.12755413 215.28499454 -0.1574636 219.63603973 -0.17043114 C221.29629423 -0.17967259 222.95652373 -0.19771935 224.61658478 -0.22469521 C226.94171473 -0.260977 229.26496473 -0.26599099 231.59033203 -0.26367188 C232.27725632 -0.28164825 232.9641806 -0.29962463 233.67192078 -0.31814575 C237.27865375 -0.2792017 238.66238565 0.04067122 241.26834106 2.6121521 C242.55997701 4.70554549 243.7988228 6.71702243 244.84179688 8.94042969 C245.16451065 9.61975052 245.48722443 10.29907135 245.81971741 10.99897766 C246.15748703 11.72739365 246.49525665 12.45580963 246.84326172 13.20629883 C247.2101561 13.98325607 247.57705048 14.76021332 247.95506287 15.56071472 C249.16099174 18.11808703 250.35753293 20.67973723 251.55419922 23.24145508 C252.40305495 25.04564522 253.25259367 26.84951417 254.1027832 28.65307617 C255.856792 32.37590565 257.60743843 36.1002875 259.35546875 39.82592773 C262.84615731 47.26183094 266.36808878 54.68286453 269.88925171 62.10437012 C271.73276094 65.99153373 273.5729863 69.88025135 275.41357422 73.76879883 C278.15082839 79.55086975 280.89048681 85.33179317 283.63270569 91.11151123 C285.27451942 94.57200028 286.91569933 98.03278978 288.55685425 101.49359131 C289.33431387 103.13261437 290.11207477 104.77149456 290.89016724 106.41021729 C292.63841755 110.09230001 294.38284074 113.7760038 296.11523438 117.46557617 C297.24660809 119.87345934 298.40284213 122.26116964 299.58300781 124.64624023 C300.28611084 126.09522705 300.28611084 126.09522705 301.00341797 127.57348633 C301.40520264 128.38019775 301.8069873 129.18690918 302.22094727 130.01806641 C303.11785845 132.91285421 302.96351064 134.46155704 301.92919922 137.30395508 C298.68497027 140.45962293 296.23686304 140.68069768 291.79748631 140.68706512 C290.53161641 140.69612176 289.26574651 140.7051784 287.96151692 140.71450949 C286.5539792 140.70940498 285.1464425 140.70401288 283.73890686 140.69836426 C282.24583569 140.70325154 280.75276831 140.70944059 279.25970739 140.71682215 C275.15097153 140.73326543 271.042427 140.73089487 266.93366969 140.72544718 C262.50481267 140.72278238 258.07600729 140.73729836 253.64717102 140.74954224 C244.96847279 140.77062142 236.28984133 140.77513568 227.61112053 140.77335435 C220.55890421 140.77204803 213.50670877 140.7758442 206.45449638 140.78327942 C204.42508664 140.78537855 202.39567689 140.78747615 200.36626714 140.78957224 C198.851251 140.79113753 198.851251 140.79113753 197.30562847 140.79273444 C178.19348431 140.81164668 159.0813785 140.81058353 139.96922886 140.80376512 C122.47438019 140.7981883 104.97967791 140.81901927 87.48486347 140.85212559 C69.53219305 140.88583535 51.5795928 140.90103435 33.62689012 140.89640856 C23.54337683 140.8941612 13.45999884 140.89944596 3.37651253 140.92430115 C-5.20732902 140.9452792 -13.79096106 140.94894107 -22.37481111 140.93000156 C-26.7562502 140.92082223 -31.13729828 140.91976743 -35.51870728 140.94035721 C-39.52768919 140.95898884 -43.53595773 140.95465261 -47.54491181 140.93181139 C-48.99709331 140.92760574 -50.44932868 140.93189138 -51.90145337 140.94540733 C-53.87198596 140.962503 -55.84272531 140.94591321 -57.81324673 140.92757416 C-58.90884991 140.92784654 -60.0044531 140.92811893 -61.13325638 140.92839956 C-65.00229769 140.1059434 -66.54223201 138.25471589 -69.07080078 135.30395508 C-67.01055417 126.68682944 -63.27223353 118.98545844 -59.43850708 111.05477905 C-57.50185586 107.04647945 -55.59034598 103.02619572 -53.67626953 99.00708008 C-53.28596054 98.18886276 -52.89565155 97.37064545 -52.49351501 96.52763367 C-48.77843794 88.724757 -45.18985943 80.86756442 -41.63330078 72.99145508 C-40.41520712 70.29844947 -39.19628989 67.60581727 -37.97705078 64.91333008 C-37.66858719 64.23202026 -37.3601236 63.55071045 -37.04231262 62.84875488 C-33.32686235 54.65026942 -29.57325647 46.46935835 -25.80807495 38.29360962 C-25.04042277 36.62591292 -24.27371902 34.95777924 -23.50808716 33.28915405 C-19.64688691 24.87587654 -15.72733804 16.49977207 -11.59814453 8.21411133 C-11.25795792 7.53029892 -10.9177713 6.84648651 -10.567276 6.14195251 C-7.56931476 0.18123558 -6.44621081 0.13942379 0 0 Z " fill="#EF534F" transform="translate(139.07080078125,321.696044921875)"/>
<path d="M0 0 C9.50595944 3.20805025 15.20074314 11.44091515 19.5 20.0625 C23.98997934 29.52889124 25.21942509 37.83525725 25.65991211 48.23803711 C25.74932486 52.24947941 25.74932486 52.24947941 27 56 C30.18063611 56.31524889 31.65595621 56.22072859 34.38671875 54.46875 C35.14597656 53.8190625 35.90523438 53.169375 36.6875 52.5 C40.81944444 49 40.81944444 49 43 49 C47.00828989 59.24518895 46.02038 71.75179836 42.3984375 81.98828125 C38.7875434 89.76481576 34.30752712 95.49265065 27 100 C27.03480469 99.04480469 27.06960938 98.08960938 27.10546875 97.10546875 C27.32209385 86.75904134 27.14232709 76.22449787 20 68 C18.14539721 66.59783877 18.14539721 66.59783877 16 67 C13.33333333 69.33333333 13.33333333 69.33333333 11 72 C10.01 72.495 10.01 72.495 9 73 C8.68546875 72.11957031 8.3709375 71.23914063 8.046875 70.33203125 C7.61890625 69.17058594 7.1909375 68.00914062 6.75 66.8125 C6.33234375 65.66394531 5.9146875 64.51539063 5.484375 63.33203125 C4.00083223 60.00186814 2.51397049 57.62999989 0 55 C-3.13863704 54.11406002 -3.13863704 54.11406002 -6 54 C-6.27255615 54.70503662 -6.5451123 55.41007324 -6.82592773 56.13647461 C-8.03816995 59.0930953 -9.38383225 61.94474926 -10.78515625 64.81640625 C-11.31560547 65.91017578 -11.84605469 67.00394531 -12.39257812 68.13085938 C-13.50814449 70.42331564 -14.62533917 72.71498021 -15.74414062 75.00585938 C-16.53788086 76.64458008 -16.53788086 76.64458008 -17.34765625 78.31640625 C-17.83242432 79.31099854 -18.31719238 80.30559082 -18.81665039 81.33032227 C-20.80144526 85.80808829 -21.11569313 89.35623191 -21.0625 94.25 C-21.05347656 95.32765625 -21.04445312 96.4053125 -21.03515625 97.515625 C-21.02355469 98.33546875 -21.01195312 99.1553125 -21 100 C-29.06422175 95.76628358 -34.23158989 87.77078677 -37.5 79.4375 C-41.53119193 65.59827415 -39.54318366 51.67373411 -33 39 C-29.06322574 40.31225809 -28.1728218 42.1961394 -25.8125 45.5625 C-25.09707031 46.57441406 -24.38164062 47.58632812 -23.64453125 48.62890625 C-23.10183594 49.41136719 -22.55914062 50.19382813 -22 51 C-19.525 50.505 -19.525 50.505 -17 50 C-16.81566406 49.03320312 -16.63132813 48.06640625 -16.44140625 47.0703125 C-14.62397882 38.58825637 -12.36949934 33.5263733 -6.12890625 27.234375 C0.13294796 20.66230049 0.38055249 13.88237009 0.20532227 5.23193359 C0.15022342 3.48748324 0.0770188 1.74362009 0 0 Z " fill="#EF524F" transform="translate(253,113)"/>
<path d="M0 0 C1.51815699 0.00015911 3.0363194 0.00585313 4.55444336 0.01586914 C5.35208603 0.01728409 6.1497287 0.01869904 6.97154236 0.02015686 C9.52916146 0.02577223 12.08669429 0.03832727 14.64428711 0.05102539 C16.37410356 0.05603841 18.10392137 0.06060166 19.83374023 0.06469727 C24.08312264 0.07574664 28.33244023 0.09302153 32.58178711 0.11352539 C31.93386818 4.98851537 29.91561419 8.99500319 27.80053711 13.37133789 C27.42699097 14.15620575 27.05344482 14.94107361 26.6685791 15.74972534 C25.47823757 18.24854126 24.28038153 20.74365904 23.08178711 23.23852539 C21.8845442 25.74115237 20.6888931 28.24452438 19.49499512 30.74874878 C18.75269537 32.30461241 18.0082222 33.85944137 17.26135254 35.41311646 C15.88565854 38.28810646 14.59081055 41.08645507 13.58178711 44.11352539 C1.23325163 44.33058949 -11.08619581 43.68044536 -23.41821289 43.11352539 C-19.10788052 33.06620135 -14.61469849 23.1072307 -10.04321289 13.17602539 C-9.50728516 12.0082959 -8.97135742 10.84056641 -8.41918945 9.63745117 C-7.91613281 8.54803223 -7.41307617 7.45861328 -6.89477539 6.33618164 C-6.44183105 5.35399658 -5.98888672 4.37181152 -5.5222168 3.35986328 C-3.93518287 0.13069495 -3.93518287 0.13069495 0 0 Z " fill="#EF524F" transform="translate(149.418212890625,343.886474609375)"/>
<path d="M0 0 C11.22 0 22.44 0 34 0 C39.58955019 10.45002862 45.01333959 20.93271182 50.125 31.625 C50.8526355 33.14492554 50.8526355 33.14492554 51.5949707 34.69555664 C55 41.86575664 55 41.86575664 55 43 C50.55852431 43.85916096 46.37230176 44.11697565 41.8515625 44.09765625 C40.86547501 44.09553383 40.86547501 44.09553383 39.85946655 44.09336853 C37.78126269 44.08781762 35.70317073 44.07527465 33.625 44.0625 C32.20703282 44.05747864 30.78906393 44.05291685 29.37109375 44.04882812 C25.91402678 44.03786437 22.45702433 44.02063421 19 44 C16.77471159 39.28679251 14.5510537 34.57282046 12.32885742 29.8581543 C11.57376377 28.25670969 10.81823669 26.65546936 10.06225586 25.05444336 C8.97133264 22.7438723 7.88200637 20.43255403 6.79296875 18.12109375 C6.45847214 17.41351425 6.12397552 16.70593475 5.77934265 15.97691345 C4.84365695 13.98871932 3.91803501 11.99640085 3 10 C2.70211578 9.35451202 2.40423157 8.70902405 2.09732056 8.04397583 C0.8142895 5.17762786 0 3.17822948 0 0 Z " fill="#EF5350" transform="translate(330,344)"/>
<path d="M0 0 C1.82421875 2.5546875 1.82421875 2.5546875 3.6875 5.875 C4.31011719 6.96554687 4.93273437 8.05609375 5.57421875 9.1796875 C7 12 7 12 7 14 C8.43640171 14.19573608 9.87419504 14.38127816 11.3125 14.5625 C12.11300781 14.66691406 12.91351563 14.77132813 13.73828125 14.87890625 C16.16817116 15.14755178 16.16817116 15.14755178 19 14 C19.71949183 12.35544725 20.36971413 10.68076231 21 9 C22.60615314 5.96559042 24.29809204 2.98158684 26 0 C35.84456875 0.97571909 45.64383176 2.47860197 53.89453125 8.34765625 C55 10 55 10 54.953125 12.5234375 C53.42530255 16.49327125 50.73798987 17.17617032 47.015625 18.8671875 C25.20095992 27.06181557 -3.52121451 26.78497916 -24.84765625 17.18359375 C-27 16 -27 16 -29 14 C-29.125 11.6875 -29.125 11.6875 -28 9 C-20.90383396 2.56438133 -9.35546651 0 0 0 Z " fill="#EF524F" transform="translate(243,380)"/>
<path d="M0 0 C0.66 0 1.32 0 2 0 C2.25394531 1.26457031 2.50789062 2.52914062 2.76953125 3.83203125 C3.11659546 5.49231137 3.46428434 7.15246099 3.8125 8.8125 C3.97814453 9.64587891 4.14378906 10.47925781 4.31445312 11.33789062 C4.5706543 12.54155273 4.5706543 12.54155273 4.83203125 13.76953125 C4.98389893 14.50792236 5.1357666 15.24631348 5.29223633 16.00708008 C6.12104616 18.34084161 7.07009929 19.46713695 9 21 C11.05519828 21.07047995 11.05519828 21.07047995 13 20 C14.76848736 18.16463663 14.76848736 18.16463663 16.25 15.9375 C16.77078125 15.20402344 17.2915625 14.47054687 17.828125 13.71484375 C18.21484375 13.14894531 18.6015625 12.58304688 19 12 C21 13 21 13 21.609375 14.6953125 C22.61767933 20.64430808 22.75576337 26.77248692 20.8125 32.5 C17.74540116 36.73048115 14.11519228 39.74961966 9 41 C3.57783773 41.24940099 -0.70617251 40.73536624 -5 37.25 C-8.80353724 33.46436176 -10.06239947 30.28429275 -10.3125 24.95703125 C-10.275161 19.26599348 -8.12398744 14.98304536 -5.5625 10 C-5.14162109 9.14277344 -4.72074219 8.28554687 -4.28710938 7.40234375 C-1.23056073 1.23056073 -1.23056073 1.23056073 0 0 Z " fill="#EF5350" transform="translate(250,180)"/>
</svg>
