<?xml version="1.0" encoding="UTF-8"?>
<svg version="1.1" xmlns="http://www.w3.org/2000/svg" width="512" height="512">
<path d="M0 0 C1.21750694 -0.01475876 1.21750694 -0.01475876 2.45960999 -0.02981567 C54.62474679 -0.53162176 100.87245193 13.8827015 139.3125 50.23828125 C140.17230469 51.03363281 141.03210938 51.82898437 141.91796875 52.6484375 C171.89071214 81.32365953 191.51289471 123.9107781 192.515625 165.50390625 C193.03142007 211.44909095 178.10800077 248.01135779 155.3125 287.23828125 C154.45916708 288.72368938 153.60626619 290.20934584 152.75390625 291.6953125 C131.87173811 327.88851308 107.45110726 362.23527399 82.92138672 396.02050781 C80.21206783 399.75517439 77.51290679 403.49716863 74.8125 407.23828125 C73.72788248 408.73959626 72.64324707 410.24089835 71.55859375 411.7421875 C69.40244701 414.72737233 67.24902496 417.71449513 65.09765625 420.703125 C59.54445014 428.41291601 53.95775697 436.09557981 48.3125 443.73828125 C38.46436326 457.08183983 28.72513738 470.47258599 19.44897461 484.22265625 C18.9360083 484.980625 18.42304199 485.73859375 17.89453125 486.51953125 C17.44311768 487.19048828 16.9917041 487.86144531 16.52661133 488.55273438 C15.3125 490.23828125 15.3125 490.23828125 13.3125 492.23828125 C9.9375 492.61328125 9.9375 492.61328125 6.3125 492.23828125 C2.5541836 489.14589872 0.05362953 485.12290683 -2.625 481.11328125 C-6.68104713 475.1290623 -10.81813466 469.21550603 -15.0625 463.36328125 C-15.60575928 462.6141748 -16.14901855 461.86506836 -16.70874023 461.09326172 C-17.81544702 459.56866844 -18.92262578 458.04441766 -20.03027344 456.52050781 C-22.75706826 452.76534017 -25.47175341 449.00144239 -28.1875 445.23828125 C-31.47129488 440.69042107 -34.75595054 436.14318739 -38.04296875 431.59765625 C-48.15539266 417.61094407 -58.19069315 403.57294303 -68.12207031 389.45703125 C-69.6245673 387.32747844 -71.13557479 385.20422759 -72.6484375 383.08203125 C-80.92151556 371.4264096 -88.87673511 359.56237485 -96.8125 347.67578125 C-97.63285736 346.4491275 -97.63285736 346.4491275 -98.4697876 345.19769287 C-108.94163061 329.52898336 -119.2530623 313.74658456 -128.6875 297.42578125 C-129.26798096 296.42281006 -129.84846191 295.41983887 -130.4465332 294.38647461 C-132.20132595 291.34147044 -133.94616239 288.29099656 -135.6875 285.23828125 C-136.21907715 284.31112305 -136.7506543 283.38396484 -137.29833984 282.42871094 C-164.63120917 234.51690801 -178.61836009 182.93714429 -163.86743164 128.33422852 C-155.06453992 97.83724754 -138.99672703 72.54750828 -116.6875 50.23828125 C-115.80578125 49.30435547 -115.80578125 49.30435547 -114.90625 48.3515625 C-105.54229919 38.54069586 -94.40447986 30.96060617 -82.6875 24.23828125 C-82.08550781 23.88411133 -81.48351562 23.52994141 -80.86328125 23.16503906 C-56.75825517 9.08720682 -28.01237083 0.28043468 0 0 Z M-37.6875 19.23828125 C-38.35861816 19.41697754 -39.02973633 19.59567383 -39.72119141 19.77978516 C-62.6867102 26.0650216 -83.84849313 38.68432912 -101.6875 54.23828125 C-102.42395752 54.87419189 -102.42395752 54.87419189 -103.17529297 55.52294922 C-110.45357218 61.84094802 -116.86783116 68.52670594 -122.6875 76.23828125 C-123.28643066 77.02477051 -123.28643066 77.02477051 -123.89746094 77.82714844 C-139.45758965 98.39178381 -149.51796411 120.96008007 -154.6875 146.23828125 C-154.93371094 147.4396875 -155.17992187 148.64109375 -155.43359375 149.87890625 C-158.59638335 168.98651791 -157.65423669 189.33467434 -153.6875 208.23828125 C-153.5318457 208.99947266 -153.37619141 209.76066406 -153.21582031 210.54492188 C-146.14220158 243.83752261 -127.70861135 274.05144258 -109.9152832 302.63476562 C-108.30804431 305.22334467 -106.72528085 307.82554588 -105.15307617 310.43554688 C-98.54504373 321.38764147 -91.57461847 332.04222736 -84.375 342.61328125 C-83.26579631 344.24769809 -82.15674841 345.88222067 -81.04785156 347.5168457 C-70.16605207 363.5395229 -59.07587406 379.39577335 -47.703125 395.07421875 C-45.01349887 398.78305378 -42.34543296 402.50669251 -39.6875 406.23828125 C-35.93563242 411.50204985 -32.16083957 416.74889463 -28.375 421.98828125 C-27.82787354 422.7455249 -27.28074707 423.50276855 -26.71704102 424.28295898 C-23.94379293 428.11994088 -21.168312 431.95529296 -18.390625 435.7890625 C-12.47751257 443.95596488 -6.60142362 452.14558204 -0.82006836 460.40649414 C2.46542672 465.08833917 5.85688308 469.68064355 9.3125 474.23828125 C17.52784659 464.08535292 25.18356661 453.50071325 32.67211914 442.80541992 C37.02955874 436.59830317 41.51733984 430.49334222 46.02856445 424.39746094 C51.64701819 416.80115702 57.17964628 409.14487364 62.69921875 401.4765625 C64.32739256 399.21761918 65.95987625 396.96185464 67.59375 394.70703125 C74.91164666 384.60519949 82.15679568 374.45567154 89.3125 364.23828125 C89.94623535 363.33352051 90.5799707 362.42875977 91.23291016 361.49658203 C99.39442691 349.83252033 107.51638468 338.15043772 115.3125 326.23828125 C115.94285156 325.27825195 115.94285156 325.27825195 116.5859375 324.29882812 C152.12132633 270.10210344 190.35071115 211.36190855 176.80859375 143.56738281 C170.3651294 113.31607874 156.06051365 87.04126258 134.70214844 64.6953125 C133.3551042 63.28295129 132.02489828 61.85458985 130.6953125 60.42578125 C101.68222252 30.12130744 58.7669282 13.8961188 17.36474609 12.26171875 C-1.41323708 11.86838901 -19.59741961 14.29104564 -37.6875 19.23828125 Z " fill="#000000" transform="translate(244.6875,9.76171875)"/>
<path d="M0 0 C0.53093262 0.43844238 1.06186523 0.87688477 1.60888672 1.32861328 C8.61932142 7.21176465 14.45358795 13.74147924 20 21 C20.66644531 21.85078125 21.33289063 22.7015625 22.01953125 23.578125 C45.29369749 54.24310143 54.2639248 92.86302937 49.17993164 130.88378906 C44.81608219 158.24411025 33.2610096 183.1539473 15 204 C14.32066406 204.80050781 13.64132812 205.60101563 12.94140625 206.42578125 C8.63503484 211.42050052 4.15096 215.88256596 -1 220 C-2.02351562 220.82242188 -3.04703125 221.64484375 -4.1015625 222.4921875 C-34.58912944 246.26128514 -72.53758884 256.38113245 -110.84741211 252.05444336 C-146.65599608 247.44014765 -181.41835001 229.33996251 -203.88671875 200.765625 C-204.93279297 199.39664063 -204.93279297 199.39664063 -206 198 C-206.66644531 197.14921875 -207.33289063 196.2984375 -208.01953125 195.421875 C-219.13322906 180.77897532 -226.68994686 164.55746216 -231.75 146.9375 C-232.04825684 145.91293701 -232.04825684 145.91293701 -232.35253906 144.86767578 C-235.49117383 133.3440948 -236.3686384 121.65053958 -236.3125 109.75 C-236.30686035 108.48293213 -236.3012207 107.21586426 -236.29541016 105.91040039 C-236.16771418 95.99752578 -235.40685245 86.61875985 -233 77 C-232.80132324 76.20335937 -232.60264648 75.40671875 -232.39794922 74.5859375 C-224.28942569 43.19653707 -206.22375611 14.44412363 -180 -5 C-179.46987305 -5.39396973 -178.93974609 -5.78793945 -178.39355469 -6.19384766 C-124.49730284 -45.65416205 -51.03308984 -42.15404596 0 0 Z M-192.44921875 24.92578125 C-205.6454628 40.82998349 -214.92278463 58.99568443 -220 79 C-220.26466064 80.01465332 -220.26466064 80.01465332 -220.53466797 81.04980469 C-228.73377488 113.89498816 -221.23263083 149.1629501 -204.29394531 177.91064453 C-200.95204635 183.30686553 -197.13177135 188.18065143 -193 193 C-192.34862061 193.76666992 -192.34862061 193.76666992 -191.68408203 194.54882812 C-169.23342599 220.76450102 -137.96029017 236.1953018 -103.7421875 239.71875 C-70.13708007 242.24439482 -35.99710308 231.85672873 -10.05102539 210.22045898 C15.5019419 188.22398276 33.89365098 157.02013567 37 123 C38.97018099 87.39203962 30.59554379 53.52213047 7 26 C6.56574707 25.48888672 6.13149414 24.97777344 5.68408203 24.45117188 C-18.90371374 -4.26004306 -52.48379117 -18.39474847 -89.71875 -21.2890625 C-128.96247348 -22.31687431 -166.87180337 -4.46412564 -192.44921875 24.92578125 Z " fill="#000000" transform="translate(349,84)"/>
<path d="M0 0 C6.51915515 1.3530322 9.86005041 6.62456372 13.54296875 11.85546875 C24.07068876 28.04234943 29.41260854 46.53189936 34.72436523 64.91357422 C37.09748245 73.06923715 39.83227636 80.9238535 43.3125 88.6875 C45.20899555 85.84275668 46.22334193 83.47470943 47.37109375 80.27734375 C47.95020508 78.66762695 47.95020508 78.66762695 48.54101562 77.02539062 C48.93998047 75.90326172 49.33894531 74.78113281 49.75 73.625 C50.34264648 71.98241211 50.34264648 71.98241211 50.94726562 70.30664062 C53.04177891 64.45524662 54.99206014 58.61443383 56.62133789 52.61547852 C57.3125 50.6875 57.3125 50.6875 59.3125 48.6875 C65.49174144 48.12575078 65.49174144 48.12575078 67.85668945 49.74438477 C69.98882175 52.5902075 71.01870544 55.76266492 72.16796875 59.08984375 C72.56222549 60.20147133 72.56222549 60.20147133 72.96444702 61.33555603 C73.82027955 63.76179099 74.66141798 66.19275271 75.5 68.625 C75.78873993 69.45606262 76.07747986 70.28712524 76.37496948 71.14337158 C90.10355087 110.72062098 105.35163526 157.42555119 86.71875 198.04296875 C81.75822412 207.37151326 76.0200294 214.71054775 65.9375 218.5625 C60.40206378 220.17420413 54.47368673 220.93689578 49.01953125 218.78125 C46.13701025 215.24570937 47.08438403 211.19781978 47.3125 206.8125 C47.82633168 183.57632549 34.4755344 161.90946578 22.3125 142.6875 C21.9825 142.3575 21.6525 142.0275 21.3125 141.6875 C18.99081627 145.96455048 16.68027813 150.24738633 14.37890625 154.53540039 C13.59824982 155.98649352 12.81481988 157.43609876 12.02832031 158.8840332 C3.0875451 175.35358141 -4.41028396 190.75198159 -3.46484375 209.9375 C-3.6875 212.6875 -3.6875 212.6875 -4.90625 214.53125 C-8.53019673 216.88363647 -12.56053551 216.29630044 -16.6875 215.6875 C-29.68077784 211.46712705 -37.0308797 200.59975386 -43.09375 188.99609375 C-53.07614956 168.08783612 -55.14537355 145.05278502 -47.55175781 123.03222656 C-42.50432726 109.33857598 -35.61581055 96.62625501 -28.55078125 83.890625 C-15.63704264 60.56313154 -6.72568264 38.75452762 -6.2578125 11.78515625 C-6.226875 10.78871094 -6.1959375 9.79226562 -6.1640625 8.765625 C-6.14424316 7.86231445 -6.12442383 6.95900391 -6.10400391 6.02832031 C-5.41497056 2.1558398 -3.71132966 0.94940991 0 0 Z M6.3125 28.6875 C6.16554687 29.64527344 6.01859375 30.60304688 5.8671875 31.58984375 C1.86121699 56.06454936 -9.65861883 77.69573623 -21.5 99.25 C-26.42357601 108.21701218 -31.02355748 117.12984421 -34.6875 126.6875 C-35.11804688 127.79222656 -35.54859375 128.89695312 -35.9921875 130.03515625 C-41.36460035 145.87451138 -39.98025657 162.42173869 -33.6875 177.6875 C-33.24148437 178.77675781 -32.79546875 179.86601562 -32.3359375 180.98828125 C-28.97788474 188.37036929 -24.38706452 193.96260408 -18.6875 199.6875 C-18.0275 199.3575 -17.3675 199.0275 -16.6875 198.6875 C-16.26848401 196.44867003 -15.93092748 194.194565 -15.625 191.9375 C-12.07444024 170.49767517 2.80442158 137.19557842 18.3125 121.6875 C21.5625 121.125 21.5625 121.125 25.3125 121.6875 C26.53295898 123.07055664 26.53295898 123.07055664 27.62109375 124.97265625 C28.04535645 125.70105713 28.46961914 126.42945801 28.90673828 127.17993164 C29.37063965 128.0074292 29.83454102 128.83492676 30.3125 129.6875 C31.09536377 131.04572876 31.09536377 131.04572876 31.89404297 132.43139648 C59.72259562 180.96030295 59.72259562 180.96030295 61.3125 205.6875 C68.67025641 202.38401753 73.16566162 197.25738296 76.08789062 189.67578125 C89.06736956 151.5250173 76.67646716 113.26304089 64.3125 76.6875 C61.57208844 78.05770578 61.49596083 79.3903914 60.47265625 82.24609375 C60.13169922 83.19033203 59.79074219 84.13457031 59.43945312 85.10742188 C58.91254883 86.60112305 58.91254883 86.60112305 58.375 88.125 C58.02759766 89.08599609 57.68019531 90.04699219 57.32226562 91.03710938 C55.33798296 96.5789007 53.55117463 102.12388815 52.02124023 107.80883789 C51.3125 109.6875 51.3125 109.6875 49.3125 110.6875 C45.93789978 111.02633367 44.03934322 111.20104531 41.22265625 109.2109375 C29.73526388 95.85350452 25.57055765 79.84129565 20.44433594 63.31591797 C18.6778318 57.65289285 16.85148961 52.01073232 15 46.375 C14.68683838 45.39805176 14.37367676 44.42110352 14.05102539 43.41455078 C12.29702669 38.08557955 10.28762024 33.44900591 7.3125 28.6875 C6.9825 28.6875 6.6525 28.6875 6.3125 28.6875 Z " fill="#000000" transform="translate(234.6875,83.3125)"/>
</svg>
